<svg xmlns="http://www.w3.org/2000/svg" width="68.481" height="49.984" viewBox="0 0 68.481 49.984">
    <defs>
        <style>.a{fill:#ffce32;}</style>
    </defs>
    <g transform="translate(0 -68.888)">
        <g transform="translate(0 68.888)">
            <g transform="translate(0 0)">
                <path class="a"
                      d="M55.461,84.852H51.147l1.3-14.919v-.08h0a1,1,0,0,0-.6-.919h0l-.069-.024h-.027l-.058-.016H30.909a1,1,0,1,0,0,2.008H50.353L48.36,93.832h0l-.5,5.786H12.983l.582-6.021h6.64a1,1,0,0,0,0-2.008H13.76L14.99,78.88H25.557a1,1,0,1,0,0-2.008H15.185l.58-5.976H26.9a1,1,0,1,0,0-2.008H14.853a1,1,0,0,0-.978.792h0a.178.178,0,0,1-.011.075c-.011.024,0,.015,0,.024h0l-.686,7.083H1a1,1,0,0,0,0,2.008h11.97l-1.242,12.67H8.162a1,1,0,0,0,0,2.008h3.387l-.664,6.919h0l-1.036,10.7h0v.1h0v.1a.235.235,0,0,0,.011.077v.022a.082.082,0,0,0,.015.058c.015.02,0,.027,0,.04h0a1,1,0,0,0,.239.392h0l.033.031a1,1,0,0,0,.232.159l.053.027h.018l.077.029h0l.091.022h.011l.089.013h4.591a7.639,7.639,0,0,0,15.145,0h16.1a7.639,7.639,0,0,0,15.145,0h4.589l.077-.011h.033l.06-.015.038-.013.049-.018.04-.018.044-.022.04-.022.042-.024.038-.024.04-.029.033-.027.04-.035.027-.027.04-.044.022-.024.042-.055.013-.02c.015-.024.031-.049.046-.075h0c.015-.029.029-.055.042-.086v-.027a.232.232,0,0,1,.022-.062c.007-.02,0-.029.011-.042s0-.033.013-.051,0-.031,0-.046v-.04c.042-.341.828-6.64,1.18-10.722v-.011c.1-1.175.166-2.165.166-2.771a13.059,13.059,0,0,0-13.02-13.024Zm-4.487,2.008h4.106l-.525,6.021H50.448ZM22.881,116.911a5.633,5.633,0,1,1,5.633-5.633,5.633,5.633,0,0,1-5.633,5.633Zm31.241,0a5.633,5.633,0,1,1,5.642-5.633,5.633,5.633,0,0,1-5.642,5.633Zm11.154-6.64H61.694a7.639,7.639,0,0,0-15.145,0h-16.1a7.639,7.639,0,0,0-15.145,0H11.953l.843-8.7H48.889l.077-.011H49l.06-.015.04-.013.051-.018.042-.018.044-.022.04-.022.04-.024.038-.027.04-.029.033-.029.038-.033.031-.031.035-.04.027-.031.033-.042.022-.033.029-.046.02-.035.024-.049.018-.04.018-.049.015-.044.011-.047a.082.082,0,0,1,.011-.049c.011-.018,0-.031,0-.049v-.049h0l.5-5.773h5.186a7.187,7.187,0,0,1,5.93,3.28,8.234,8.234,0,0,0,4.87,3.32c-.286,3.068-.759,7.028-.972,8.765Zm1.147-10.8a6.567,6.567,0,0,1-3.519-2.63,9.425,9.425,0,0,0-6.339-3.909l.52-5.961A11.054,11.054,0,0,1,66.5,97.9c0,.379-.029.925-.077,1.583Z"
                      transform="translate(0 -68.888)"/>
            </g>
        </g>
        <g transform="translate(19.202 107.597)">
            <path class="a"
                  d="M147.187,358.524a3.679,3.679,0,1,0,3.679,3.679A3.679,3.679,0,0,0,147.187,358.524Zm0,5.352a1.673,1.673,0,1,1,1.673-1.673,1.673,1.673,0,0,1-1.673,1.673Z"
                  transform="translate(-143.508 -358.524)"/>
        </g>
        <g transform="translate(50.443 107.597)">
            <path class="a"
                  d="M380.675,358.524a3.679,3.679,0,1,0,3.679,3.679,3.679,3.679,0,0,0-3.679-3.679Zm0,5.352a1.673,1.673,0,1,1,1.673-1.673,1.673,1.673,0,0,1-1.673,1.673Z"
                  transform="translate(-376.996 -358.524)"/>
        </g>
        <g transform="translate(3.59 84.852)">
            <g transform="translate(0)">
                <path class="a" d="M32.736,188.527h-4.9a1,1,0,1,0,0,2.008h4.9a1,1,0,0,0,0-2.008Z"
                      transform="translate(-26.834 -188.527)"/>
            </g>
        </g>
    </g>
</svg>
